{
  "accessors": [
    {
      "bufferView": 2,
      "componentType": 5126,
      "count": 533,
      "max": [
        28.272998809814453,
        0.9999970197677612,
        -39.70199966430664
      ],
      "min": [
        24.70199966430664,
        0.8599969148635864,
        -44.29800033569336
      ],
      "type": "VEC3"
    },
    {
      "bufferView": 2,
      "byteOffset": 6396,
      "componentType": 5126,
      "count": 533,
      "max": [
        1.0,
        1.0,
        1.0
      ],
      "min": [
        -1.0,
        -1.0,
        -1.0
      ],
      "type": "VEC3"
    },
    {
      "bufferView": 1,
      "componentType": 5126,
      "count": 533,
      "max": [
        15.266000747680664,
        0.833332359790802
      ],
      "min": [
        8.734000205993652,
        -14.266000747680664
      ],
      "type": "VEC2"
    },
    {
      "bufferView": 0,
      "componentType": 5125,
      "count": 1404,
      "type": "SCALAR"
    },
    {
      "bufferView": 2,
      "byteOffset": 12792,
      "componentType": 5126,
      "count": 6272,
      "max": [
        28.244056701660156,
        2.3429670333862305,
        -39.65238952636719
      ],
      "min": [
        24.652389526367188,
        -0.0142617616802454,
        -44.34761047363281
      ],
      "type": "VEC3"
    },
    {
      "bufferView": 2,
      "byteOffset": 88056,
      "componentType": 5126,
      "count": 6272,
      "max": [
        1.0,
        1.0,
        1.0
      ],
      "min": [
        -1.0,
        -1.0,
        -1.0
      ],
      "type": "VEC3"
    },
    {
      "bufferView": 1,
      "byteOffset": 4264,
      "componentType": 5126,
      "count": 6272,
      "max": [
        15.282537460327148,
        1.2809890508651733
      ],
      "min": [
        8.717463493347168,
        -14.282537460327148
      ],
      "type": "VEC2"
    },
    {
      "bufferView": 0,
      "byteOffset": 5616,
      "componentType": 5125,
      "count": 17472,
      "type": "SCALAR"
    },
    {
      "bufferView": 2,
      "byteOffset": 163320,
      "componentType": 5126,
      "count": 96,
      "max": [
        27.923999786376953,
        2.2069969177246094,
        -39.98699951171875
      ],
      "min": [
        24.98699951171875,
        1.5259969234466553,
        -44.01300048828125
      ],
      "type": "VEC3"
    },
    {
      "bufferView": 2,
      "byteOffset": 164472,
      "componentType": 5126,
      "count": 96,
      "max": [
        1.0,
        1.0,
        1.0
      ],
      "min": [
        -1.0,
        -1.0,
        -1.0
      ],
      "type": "VEC3"
    },
    {
      "bufferView": 1,
      "byteOffset": 54440,
      "componentType": 5126,
      "count": 96,
      "max": [
        15.171000480651855,
        1.2356656789779663
      ],
      "min": [
        8.829000473022461,
        -14.171000480651855
      ],
      "type": "VEC2"
    },
    {
      "bufferView": 0,
      "byteOffset": 75504,
      "componentType": 5125,
      "count": 144,
      "type": "SCALAR"
    },
    {
      "bufferView": 2,
      "byteOffset": 165624,
      "componentType": 5126,
      "count": 3741,
      "max": [
        28.0,
        2.282996892929077,
        -39.70000076293945
      ],
      "min": [
        24.700000762939453,
        0.8499970436096191,
        -44.29999923706055
      ],
      "type": "VEC3"
    },
    {
      "bufferView": 2,
      "byteOffset": 210516,
      "componentType": 5126,
      "count": 3741,
      "max": [
        1.0,
        0.993692934513092,
        1.0
      ],
      "min": [
        -1.0,
        -0.9936900734901428,
        -1.0
      ],
      "type": "VEC3"
    },
    {
      "bufferView": 1,
      "byteOffset": 55208,
      "componentType": 5126,
      "count": 3741,
      "max": [
        15.266666412353516,
        1.2609989643096924
      ],
      "min": [
        8.733333587646484,
        -14.266666412353516
      ],
      "type": "VEC2"
    },
    {
      "bufferView": 0,
      "byteOffset": 76080,
      "componentType": 5125,
      "count": 7524,
      "type": "SCALAR"
    },
    {
      "bufferView": 2,
      "byteOffset": 255408,
      "componentType": 5126,
      "count": 6794,
      "max": [
        28.156333923339844,
        2.776331901550293,
        -39.82999801635742
      ],
      "min": [
        24.702001571655273,
        0.17899703979492188,
        -44.17000198364258
      ],
      "type": "VEC3"
    },
    {
      "bufferView": 2,
      "byteOffset": 336936,
      "componentType": 5126,
      "count": 6794,
      "max": [
        1.0,
        1.0,
        1.0
      ],
      "min": [
        -1.0,
        -1.0,
        -1.0
      ],
      "type": "VEC3"
    },
    {
      "bufferView": 1,
      "byteOffset": 85136,
      "componentType": 5126,
      "count": 6794,
      "max": [
        15.180334091186523,
        1.4254440069198608
      ],
      "min": [
        0.08333331346511841,
        -14.223334312438965
      ],
      "type": "VEC2"
    },
    {
      "bufferView": 0,
      "byteOffset": 106176,
      "componentType": 5125,
      "count": 19764,
      "type": "SCALAR"
    },
    {
      "bufferView": 2,
      "byteOffset": 418464,
      "componentType": 5126,
      "count": 164,
      "max": [
        26.774999618530273,
        1.3082375526428223,
        -40.32500076293945
      ],
      "min": [
        24.719999313354492,
        0.3773360848426819,
        -42.31028747558594
      ],
      "type": "VEC3"
    },
    {
      "bufferView": 2,
      "byteOffset": 420432,
      "componentType": 5126,
      "count": 164,
      "max": [
        1.0,
        1.0,
        1.0
      ],
      "min": [
        -1.0,
        -1.0,
        -1.0
      ],
      "type": "VEC3"
    },
    {
      "bufferView": 1,
      "byteOffset": 139488,
      "componentType": 5126,
      "count": 164,
      "max": [
        14.603429794311523,
        0.936079204082489
      ],
      "min": [
        8.739999771118164,
        -13.603429794311523
      ],
      "type": "VEC2"
    },
    {
      "bufferView": 0,
      "byteOffset": 185232,
      "componentType": 5125,
      "count": 294,
      "type": "SCALAR"
    },
    {
      "bufferView": 2,
      "byteOffset": 422400,
      "componentType": 5126,
      "count": 48,
      "max": [
        26.65799903869629,
        1.1912375688552856,
        -40.32500076293945
      ],
      "min": [
        26.34200096130371,
        0.4943360686302185,
        -40.334999084472656
      ],
      "type": "VEC3"
    },
    {
      "bufferView": 2,
      "byteOffset": 422976,
      "componentType": 5126,
      "count": 48,
      "max": [
        1.0,
        1.0,
        1.0
      ],
      "min": [
        -1.0,
        -1.0,
        -1.0
      ],
      "type": "VEC3"
    },
    {
      "bufferView": 1,
      "byteOffset": 140800,
      "componentType": 5126,
      "count": 48,
      "max": [
        13.944999694824219,
        0.8970792293548584
      ],
      "min": [
        9.280667304992676,
        -12.944999694824219
      ],
      "type": "VEC2"
    },
    {
      "bufferView": 0,
      "byteOffset": 186408,
      "componentType": 5125,
      "count": 72,
      "type": "SCALAR"
    },
    {
      "bufferView": 2,
      "byteOffset": 423552,
      "componentType": 5126,
      "count": 4944,
      "max": [
        27.725000381469727,
        2.2129969596862793,
        -39.82499694824219
      ],
      "min": [
        24.76417350769043,
        0.7539564371109009,
        -44.17500305175781
      ],
      "type": "VEC3"
    },
    {
      "bufferView": 2,
      "byteOffset": 482880,
      "componentType": 5126,
      "count": 4944,
      "max": [
        1.0,
        1.0,
        1.0
      ],
      "min": [
        -1.0,
        -1.0,
        -1.0
      ],
      "type": "VEC3"
    },
    {
      "bufferView": 1,
      "byteOffset": 141184,
      "componentType": 5126,
      "count": 4944,
      "max": [
        15.225001335144043,
        1.2376656532287598
      ],
      "min": [
        8.754724502563477,
        -14.225001335144043
      ],
      "type": "VEC2"
    },
    {
      "bufferView": 0,
      "byteOffset": 186696,
      "componentType": 5125,
      "count": 11424,
      "type": "SCALAR"
    },
    {
      "bufferView": 2,
      "byteOffset": 542208,
      "componentType": 5126,
      "count": 752,
      "max": [
        25.46000099182129,
        1.139996886253357,
        -39.702999114990234
      ],
      "min": [
        24.702999114990234,
        1.0599969625473022,
        -41.01142883300781
      ],
      "type": "VEC3"
    },
    {
      "bufferView": 2,
      "byteOffset": 551232,
      "componentType": 5126,
      "count": 752,
      "max": [
        1.0,
        1.0,
        1.0
      ],
      "min": [
        -1.0,
        -1.0,
        -1.0
      ],
      "type": "VEC3"
    },
    {
      "bufferView": 1,
      "byteOffset": 180736,
      "componentType": 5126,
      "count": 752,
      "max": [
        14.16981029510498,
        0.8799989819526672
      ],
      "min": [
        8.734333038330078,
        -13.170476913452148
      ],
      "type": "VEC2"
    },
    {
      "bufferView": 0,
      "byteOffset": 232392,
      "componentType": 5125,
      "count": 1488,
      "type": "SCALAR"
    }
  ],
  "asset": {
    "extras": {
      "author": "Giimann (https://sketchfab.com/giimann)",
      "license": "SKETCHFAB Standard (https://sketchfab.com/licenses)",
      "source": "https://sketchfab.com/3d-models/kitchen-cabinets-001-5384621b7d9d45ca9d77258b57cf0dc4",
      "title": "Kitchen Cabinets 001"
    },
    "generator": "Sketchfab-15.13.0",
    "version": "2.0"
  },
  "bufferViews": [
    {
      "buffer": 0,
      "byteLength": 238344,
      "name": "floatBufferViews",
      "target": 34963
    },
    {
      "buffer": 0,
      "byteLength": 186752,
      "byteOffset": 238344,
      "byteStride": 8,
      "name": "floatBufferViews",
      "target": 34962
    },
    {
      "buffer": 0,
      "byteLength": 560256,
      "byteOffset": 425096,
      "byteStride": 12,
      "name": "floatBufferViews",
      "target": 34962
    }
  ],
  "buffers": [
    {
      "byteLength": 985352,
      "uri": "scene.bin"
    }
  ],
  "extensionsUsed": [
    "KHR_materials_transmission"
  ],
  "materials": [
    {
      "doubleSided": true,
      "name": "Table_Top_Mat1",
      "pbrMetallicRoughness": {
        "baseColorFactor": [
          0.06725368186183119,
          0.06725368186183119,
          0.06725368186183119,
          1.0
        ],
        "metallicFactor": 0.0,
        "roughnessFactor": 0.05333349587351123
      }
    },
    {
      "doubleSided": true,
      "name": "Units_Mat1",
      "pbrMetallicRoughness": {
        "metallicFactor": 0.0,
        "roughnessFactor": 0.042294850537622566
      }
    },
    {
      "alphaMode": "BLEND",
      "doubleSided": true,
      "extensions": {
        "KHR_materials_transmission": {
          "transmissionFactor": 0.5870463605222416
        }
      },
      "name": "Glass1",
      "pbrMetallicRoughness": {
        "baseColorFactor": [
          0.0125,
          0.0125,
          0.0125,
          0.41295363947775837
        ],
        "metallicFactor": 0.6994307030269045,
        "roughnessFactor": 0.0
      }
    },
    {
      "doubleSided": true,
      "name": "Splash_back1",
      "pbrMetallicRoughness": {
        "baseColorFactor": [
          0.3921895658718545,
          0.7884044744472358,
          1.0,
          1.0
        ],
        "metallicFactor": 0.0,
        "roughnessFactor": 0.0
      }
    },
    {
      "doubleSided": true,
      "name": "Chrome1",
      "pbrMetallicRoughness": {
        "baseColorFactor": [
          0.6912592433859023,
          0.6912592433859023,
          0.6912592433859023,
          1.0
        ],
        "roughnessFactor": 0.042294850537622566
      }
    },
    {
      "doubleSided": true,
      "name": "Black_Gloss",
      "pbrMetallicRoughness": {
        "baseColorFactor": [
          0.00625,
          0.00625,
          0.00625,
          1.0
        ],
        "metallicFactor": 0.5836208262729943,
        "roughnessFactor": 0.0
      }
    },
    {
      "doubleSided": true,
      "name": "Glass",
      "pbrMetallicRoughness": {
        "baseColorFactor": [
          0.019,
          0.019,
          0.019,
          1.0
        ],
        "metallicFactor": 0.0,
        "roughnessFactor": 0.9577051494623774
      }
    },
    {
      "doubleSided": true,
      "name": "default_material",
      "pbrMetallicRoughness": {
        "baseColorFactor": [
          0.014139134381343963,
          0.014139134381343963,
          0.014139134381343963,
          1.0
        ],
        "metallicFactor": 0.0,
        "roughnessFactor": 0.4
      }
    },
    {
      "doubleSided": true,
      "name": "Plastic",
      "pbrMetallicRoughness": {
        "baseColorFactor": [
          0.75,
          0.75,
          0.75,
          1.0
        ],
        "metallicFactor": 0.0,
        "roughnessFactor": 0.1386670892711292
      }
    }
  ],
  "meshes": [
    {
      "name": "blast1_Table_Top_Mat1_0",
      "primitives": [
        {
          "attributes": {
            "NORMAL": 1,
            "POSITION": 0,
            "TEXCOORD_0": 2
          },
          "indices": 3,
          "material": 0,
          "mode": 4
        }
      ]
    },
    {
      "name": "blast1_Units_Mat1_0",
      "primitives": [
        {
          "attributes": {
            "NORMAL": 5,
            "POSITION": 4,
            "TEXCOORD_0": 6
          },
          "indices": 7,
          "material": 1,
          "mode": 4
        }
      ]
    },
    {
      "name": "blast1_Glass1_0",
      "primitives": [
        {
          "attributes": {
            "NORMAL": 9,
            "POSITION": 8,
            "TEXCOORD_0": 10
          },
          "indices": 11,
          "material": 2,
          "mode": 4
        }
      ]
    },
    {
      "name": "blast1_Splash_back1_0",
      "primitives": [
        {
          "attributes": {
            "NORMAL": 13,
            "POSITION": 12,
            "TEXCOORD_0": 14
          },
          "indices": 15,
          "material": 3,
          "mode": 4
        }
      ]
    },
    {
      "name": "blast1_Chrome1_0",
      "primitives": [
        {
          "attributes": {
            "NORMAL": 17,
            "POSITION": 16,
            "TEXCOORD_0": 18
          },
          "indices": 19,
          "material": 4,
          "mode": 4
        }
      ]
    },
    {
      "name": "blast1_Black_Gloss_0",
      "primitives": [
        {
          "attributes": {
            "NORMAL": 21,
            "POSITION": 20,
            "TEXCOORD_0": 22
          },
          "indices": 23,
          "material": 5,
          "mode": 4
        }
      ]
    },
    {
      "name": "blast1_Glass_0",
      "primitives": [
        {
          "attributes": {
            "NORMAL": 25,
            "POSITION": 24,
            "TEXCOORD_0": 26
          },
          "indices": 27,
          "material": 6,
          "mode": 4
        }
      ]
    },
    {
      "name": "blast1_default_material_0",
      "primitives": [
        {
          "attributes": {
            "NORMAL": 29,
            "POSITION": 28,
            "TEXCOORD_0": 30
          },
          "indices": 31,
          "material": 7,
          "mode": 4
        }
      ]
    },
    {
      "name": "blast1_Plastic_0",
      "primitives": [
        {
          "attributes": {
            "NORMAL": 33,
            "POSITION": 32,
            "TEXCOORD_0": 34
          },
          "indices": 35,
          "material": 8,
          "mode": 4
        }
      ]
    }
  ],
  "nodes": [
    {
      "children": [
        1
      ],
      "matrix": [
        1.0,
        0.0,
        0.0,
        0.0,
        0.0,
        2.220446049250313e-16,
        -1.0,
        0.0,
        0.0,
        1.0,
        2.220446049250313e-16,
        0.0,
        0.0,
        0.0,
        0.0,
        1.0
      ],
      "name": "Sketchfab_model"
    },
    {
      "children": [
        2
      ],
      "matrix": [
        0.009999999776482582,
        0.0,
        0.0,
        0.0,
        0.0,
        0.0,
        0.009999999776482582,
        0.0,
        0.0,
        -0.009999999776482582,
        0.0,
        0.0,
        0.0,
        0.0,
        0.0,
        1.0
      ],
      "name": "86d128479b7e47eea724d9d95844c989.fbx"
    },
    {
      "children": [
        3
      ],
      "name": "RootNode"
    },
    {
      "children": [
        4,
        5,
        6,
        7,
        8,
        9,
        10,
        11,
        12
      ],
      "name": "blast1"
    },
    {
      "mesh": 0,
      "name": "blast1_Table_Top_Mat1_0"
    },
    {
      "mesh": 1,
      "name": "blast1_Units_Mat1_0"
    },
    {
      "mesh": 2,
      "name": "blast1_Glass1_0"
    },
    {
      "mesh": 3,
      "name": "blast1_Splash_back1_0"
    },
    {
      "mesh": 4,
      "name": "blast1_Chrome1_0"
    },
    {
      "mesh": 5,
      "name": "blast1_Black_Gloss_0"
    },
    {
      "mesh": 6,
      "name": "blast1_Glass_0"
    },
    {
      "mesh": 7,
      "name": "blast1_default_material_0"
    },
    {
      "mesh": 8,
      "name": "blast1_Plastic_0"
    }
  ],
  "scene": 0,
  "scenes": [
    {
      "name": "Sketchfab_Scene",
      "nodes": [
        0
      ]
    }
  ]
}
